# xmcd
#
# Track frame offsets:
#	150
#	11765
#	24769
#	39153
#	50934
#	64419
#	74999
#	89161
#	101553
#	113614
#	127885
#	142285
#	153883
#	165507
#	178614
#	188036
#	201409
#	211919
#	225068
#	239542
#	249446
#	261547
#	276357
#	288782
#	301633
#
# Disc length: 4188 seconds
# Revision: 3
# Processed by: cddbd v1.5.2PL0 Copyright (c) Steve Scherf et al.
# Submitted via: dBpowerAMP V12.0
#
DISCID=6a105a19
DTITLE=Various Artist - The R&B Hits of 1952
DYEAR=1952
DGENRE=R&B
TTITLE0=Howlin' Wolf - Saddle My Pony
TTITLE1=Fluffy Hunter - The Walkin' Blues
TTITLE2=Chuck Willis - My Story
TTITLE3=Fluffy Hunter - Stormy Weather
TTITLE4=Jimmy Forest - Night Train
TTITLE5=Little Willie Littlefield - Turn the Lamp Down Low
TTITLE6=Willie Mabon - I Don't Know
TTITLE7=Fluffy Hunter - Got You on My Mind
TTITLE8=Ediie Boyd - Five Long Years
TTITLE9=Ray Charles - Kissa Me Baby
TTITLE10=Edna McGriff - It's Raining
TTITLE11=Jimmy Witherspoon - Lucille
TTITLE12=The Soul Stirrers - It Won't Be Very Long
TTITLE13=The Orioles - Getting Tired Tired Tired
TTITLE14=Camille Howard - X-Temporaneous Boogie
TTITLE15=Elmer James (Arthus Crudup) - Gonna Find My Baby
TTITLE16=Shirley and Lee - I'm Gone
TTITLE17=Joe Turner - Sweet Sixteen
TTITLE18=Roy Milton - So Tired
TTITLE19=Fats Domino - Goin' Home
TTITLE20=Varetta Dillard - Easy Easy Baby
TTITLE21=Bobby Bland - Lovin' Blues
TTITLE22=Tiny Bradshaw - The Train Kept A-Rollin'
TTITLE23=Percy Mayfield - The Big Question
TTITLE24=Memphis Slim - No Mail Blues
EXTD=
EXTT0=
EXTT1=
EXTT2=
EXTT3=
EXTT4=
EXTT5=
EXTT6=
EXTT7=
EXTT8=
EXTT9=
EXTT10=
EXTT11=
EXTT12=
EXTT13=
EXTT14=
EXTT15=
EXTT16=
EXTT17=
EXTT18=
EXTT19=
EXTT20=
EXTT21=
EXTT22=
EXTT23=
EXTT24=
PLAYORDER=
